<svg width="80" height="80" viewBox="0 0 80 80" fill="none" xmlns="http://www.w3.org/2000/svg">
<path d="M45.0001 40C53.2485 40 60.536 32.2328 61.2501 22.6844C61.6048 17.8875 60.1001 13.4141 57.0126 10.0906C53.9579 6.80781 49.6876 5 45.0001 5C40.2751 5 36.0016 6.79687 32.9688 10.0594C29.9016 13.3578 28.4063 17.8406 28.7501 22.6813C29.4516 32.2313 36.7376 40 45.0001 40Z" fill="#9B51E0"/>
<path d="M77.403 68.7125C76.0842 61.3969 71.967 55.2516 65.4983 50.9391C59.753 47.1094 52.4733 45 44.9998 45C37.5264 45 30.2467 47.1094 24.5014 50.9375C18.0327 55.25 13.9155 61.3953 12.5967 68.7109C12.2952 70.3875 12.7045 72.0453 13.7202 73.2594C14.1808 73.8126 14.7592 74.256 15.4131 74.5572C16.0671 74.8583 16.78 75.0096 17.4998 75H72.4998C73.2201 75.0103 73.9336 74.8594 74.5881 74.5586C75.2425 74.2577 75.8215 73.8143 76.2827 73.2609C77.2952 72.0469 77.7045 70.3891 77.403 68.7125Z" fill="#9B51E0"/>
<path d="M16.25 45V38.75H22.5C23.163 38.75 23.7989 38.4866 24.2678 38.0178C24.7366 37.5489 25 36.913 25 36.25C25 35.587 24.7366 34.9511 24.2678 34.4822C23.7989 34.0134 23.163 33.75 22.5 33.75H16.25V27.5C16.25 26.837 15.9866 26.2011 15.5178 25.7322C15.0489 25.2634 14.413 25 13.75 25C13.087 25 12.4511 25.2634 11.9822 25.7322C11.5134 26.2011 11.25 26.837 11.25 27.5V33.75H5C4.33696 33.75 3.70107 34.0134 3.23223 34.4822C2.76339 34.9511 2.5 35.587 2.5 36.25C2.5 36.913 2.76339 37.5489 3.23223 38.0178C3.70107 38.4866 4.33696 38.75 5 38.75H11.25V45C11.25 45.663 11.5134 46.2989 11.9822 46.7678C12.4511 47.2366 13.087 47.5 13.75 47.5C14.413 47.5 15.0489 47.2366 15.5178 46.7678C15.9866 46.2989 16.25 45.663 16.25 45Z" fill="#9B51E0"/>
</svg>
