<svg width="80" height="80" viewBox="0 0 80 80" fill="none" xmlns="http://www.w3.org/2000/svg">
<path d="M51.9752 10.0906C48.9345 6.80781 44.6877 5 40.0002 5C35.2877 5 31.0267 6.79687 28.0002 10.0594C24.9408 13.3578 23.4502 17.8406 23.8002 22.6813C24.4939 32.2313 31.7611 40 40.0002 40C48.2392 40 55.4939 32.2328 56.1986 22.6844C56.5533 17.8875 55.0533 13.4141 51.9752 10.0906Z" fill="#9B51E0"/>
<path d="M67.4999 75H12.4999C11.78 75.0094 11.0671 74.8581 10.413 74.5573C9.75889 74.2565 9.18008 73.8136 8.71867 73.2609C7.70304 72.0469 7.29367 70.3891 7.59679 68.7125C8.91554 61.3969 13.0312 55.2516 19.4999 50.9375C25.2468 47.1078 32.5265 45 39.9999 45C47.4734 45 54.753 47.1094 60.4999 50.9375C66.9687 55.25 71.0843 61.3953 72.403 68.7109C72.7062 70.3875 72.2968 72.0453 71.2812 73.2594C70.8199 73.8123 70.2412 74.2555 69.5871 74.5566C68.9329 74.8577 68.2199 75.0092 67.4999 75Z" fill="#9B51E0"/>
</svg>
