<svg width="74" height="78" viewBox="0 0 74 78" fill="none" xmlns="http://www.w3.org/2000/svg">
<path d="M70.8376 63.5703C68.9955 59.2068 66.3221 55.2432 62.9666 51.9004C59.6212 48.5479 55.6582 45.875 51.2966 44.0293C51.2576 44.0098 51.2185 44 51.1794 43.9805C57.2634 39.5859 61.2185 32.4277 61.2185 24.3516C61.2185 10.9727 50.3787 0.132812 36.9998 0.132812C23.6208 0.132812 12.781 10.9727 12.781 24.3516C12.781 32.4277 16.7361 39.5859 22.8201 43.9902C22.781 44.0098 22.7419 44.0195 22.7029 44.0391C18.3279 45.8848 14.4021 48.5312 11.033 51.9102C7.68051 55.2555 5.00761 59.2185 3.16187 63.5801C1.34861 67.8501 0.370673 72.4282 0.281006 77.0664C0.278399 77.1706 0.296681 77.2743 0.334774 77.3714C0.372867 77.4684 0.43 77.5569 0.502807 77.6315C0.575614 77.7061 0.662621 77.7654 0.758703 77.8059C0.854784 77.8464 0.957996 77.8672 1.06226 77.8672H6.92163C7.35132 77.8672 7.69312 77.5254 7.70288 77.1055C7.89819 69.5664 10.9255 62.5059 16.2771 57.1543C21.8142 51.6172 29.1677 48.5703 36.9998 48.5703C44.8318 48.5703 52.1853 51.6172 57.7224 57.1543C63.074 62.5059 66.1013 69.5664 66.2966 77.1055C66.3064 77.5352 66.6482 77.8672 67.0779 77.8672H72.9373C73.0415 77.8672 73.1447 77.8464 73.2408 77.8059C73.3369 77.7654 73.4239 77.7061 73.4967 77.6315C73.5695 77.5569 73.6266 77.4684 73.6647 77.3714C73.7028 77.2743 73.7211 77.1706 73.7185 77.0664C73.6208 72.3984 72.6541 67.8574 70.8376 63.5703ZM36.9998 41.1484C32.5173 41.1484 28.2986 39.4004 25.1248 36.2266C21.9509 33.0527 20.2029 28.834 20.2029 24.3516C20.2029 19.8691 21.9509 15.6504 25.1248 12.4766C28.2986 9.30273 32.5173 7.55469 36.9998 7.55469C41.4822 7.55469 45.7009 9.30273 48.8748 12.4766C52.0486 15.6504 53.7966 19.8691 53.7966 24.3516C53.7966 28.834 52.0486 33.0527 48.8748 36.2266C45.7009 39.4004 41.4822 41.1484 36.9998 41.1484Z" fill="#333333"/>
</svg>
