<svg width="325" height="325" viewBox="0 0 325 325" fill="none" xmlns="http://www.w3.org/2000/svg">
<rect width="325" height="325" rx="20" fill="#F7E3FF"/>
<g clip-path="url(#clip0_21_86)">
<path d="M81.25 111.312C81.25 105.925 83.3901 100.759 87.1994 96.9494C91.0087 93.1401 96.1753 91 101.562 91H223.438C228.825 91 233.991 93.1401 237.801 96.9494C241.61 100.759 243.75 105.925 243.75 111.312V192.562C243.75 197.95 241.61 203.116 237.801 206.926C233.991 210.735 228.825 212.875 223.438 212.875H126.08C123.386 212.876 120.803 213.946 118.899 215.851L89.9234 244.827C89.2138 245.538 88.3091 246.023 87.3238 246.22C86.3385 246.417 85.3169 246.317 84.3883 245.933C83.4597 245.549 82.6658 244.899 82.1072 244.064C81.5485 243.228 81.2502 242.246 81.25 241.241V111.312ZM154.314 139.405C153.645 138.406 152.872 137.48 152.009 136.642C150.651 135.244 149.033 134.126 147.245 133.352L147.164 133.311C144.759 132.194 142.138 131.619 139.486 131.625C129.756 131.625 121.875 139.202 121.875 148.555C121.875 157.899 129.756 165.476 139.486 165.476C142.97 165.476 146.209 164.511 148.941 162.835C147.55 166.786 144.98 171.001 140.715 175.226C140.313 175.618 139.996 176.088 139.783 176.608C139.569 177.127 139.465 177.685 139.475 178.246C139.486 178.807 139.611 179.361 139.843 179.872C140.076 180.383 140.41 180.841 140.827 181.218C142.584 182.843 145.366 182.792 147.062 181.116C160.611 167.619 160.977 153.105 156.62 143.477C155.98 142.054 155.208 140.694 154.314 139.415V139.405ZM192.969 162.835C191.588 166.786 189.008 171.001 184.742 175.226C184.341 175.619 184.025 176.089 183.812 176.609C183.6 177.129 183.496 177.687 183.508 178.248C183.519 178.81 183.645 179.363 183.879 179.873C184.112 180.384 184.447 180.842 184.864 181.218C186.611 182.843 189.394 182.792 191.09 181.116C204.638 167.619 205.004 153.105 200.657 143.477C200.014 142.054 199.238 140.694 198.341 139.415C197.673 138.412 196.9 137.483 196.036 136.642C194.679 135.244 193.06 134.126 191.273 133.352L191.191 133.311C188.789 132.196 186.172 131.62 183.523 131.625C173.804 131.625 165.913 139.202 165.913 148.555C165.913 157.899 173.804 165.476 183.523 165.476C187.007 165.476 190.247 164.511 192.979 162.835H192.969Z" fill="#BB6BD9"/>
</g>
<defs>
<clipPath id="clip0_21_86">
<rect width="162.5" height="162.5" fill="white" transform="translate(81.25 91)"/>
</clipPath>
</defs>
</svg>
